<svg id="Layer_1" enable-background="new 0 0 512 512" height="512" viewBox="0 0 512 512" width="512" xmlns="http://www.w3.org/2000/svg"><g fill="#c69a85"><path d="m420.144 19.2 11.733 185.6-89.038 22.754c-.194 9.362-5.592 269.808-5.895 284.446h174.933v-512z"/><path d="m336.944 512h8.533l-8.249-13.724z"/><path d="m202.801 293.723 4.009-193.456c.951-.407 1.896-.788 2.844-1.179-5.474-1.719-74.581-23.41-81.121-24.751l-38.933 14.288 3.077 35.642 36.267 44.267 4.266 106.666 66.133 4.585z"/><path d="m420.144 19.2-74.667 81.067-2.638 127.287 89.038-22.754z"/></g><path d="m511.877 278.4-71.467 42.677-51.733 87.263 6.933 103.66h116.267z" fill="#9f7766"/><path d="m199.344 279.785-66.134-4.585-4.266-106.667-36.267-44.266-6.4-74.134-86.154-50.133v512h198.154l4.524-218.277z" fill="#c69a85"/><path d="m.123 264.545c1.872-43.957 10.113-97.677 8.288-99.888-1.733-2.099-5.342-9.872-8.288-16.559v116.447z" fill="#9f7766"/><path d="m112.5 442.28c11.733-30.327-12.356-39.079-12.356-39.079l10.076-26.311-38.876-78.711-27.432-5.979s-.301 19.267-30.168 28.877c-8.69 2.796-12.503-8.951-13.621-27.108v218.031h127.877c15.536-24.948-23.802-48.262-15.5-69.72z" fill="#9f7766"/><path d="m202.801 293.723.785-37.877c-17.49-.49-38.331-2.617-46.909-9.519-16-12.873 0-9.522 0-9.522h8.533v-44.556h-22.817l8.034-50.382s-21.484-7.467-33.217-23.07c-5.489-7.299-4.208-24.059-1.29-39.83l-26.32 9.658 3.077 35.642 36.267 44.267 4.266 106.666 66.133 4.585z" fill="#9f7766"/><path d="m202.801 280.025-69.591-4.825-4.267-106.667-36.267-44.267-6.4-74.133-41.237-23.996s-7.829 117.708 17.771 135.919 32.362 30.193 32.362 30.193l-5.572 85.751s15.056 2.674 38.933 36.204 72.607 59.656 72.607 59.656c-2.299 79.252-2.963 138.14-2.863 138.14 5.182-250.009 4.524-212.717 4.524-231.975z" fill="#dfb7a4"/><path d="m209.654 99.088c-3.276-1.029-29.342-9.21-51.149-15.903 1.299 3.754 3.446 7.948 6.705 12.631 23.484 33.74 29.501 57.223 39.864 88.214.1 0-.04 1.949 1.736-83.764.952-.406 1.897-.787 2.844-1.178z" fill="#e0c8bf"/><path d="m425.819 108.971c-2.252 5.032-5.482 9.781-9.942 14.068-22.756 21.879-54.094 58.591-73.038 83.281v21.233l89.038-22.754z" fill="#9f7766"/><path d="m420.144 19.2-8.89 9.652c3.283 5.68 7.379 13.487 10.915 22.392z" fill="#9f7766"/><path d="m345.477 118.233c11.421-2.603 23.492-5.731 34.133-9.261 22.999-7.629 18.139-40.987 13.226-60.123l-47.359 51.419z" fill="#e0c8bf"/><path d="m420.144 19.2 11.733 185.6-89.038 22.754-2.432 117.333c6.317-9.233 13.342-21.745 17.87-36.62 9.956-32.712 63.286-52.267 63.286-52.267l46.225-91.344-12.089-85.69 15.871-70.53z" fill="#dfb7a4"/><path d="m345.477 100.267c-41.216-20.334-87.009-22.076-138.667 0l-8.533 411.733h138.667z" fill="#a2d0ff"/><path d="m121 414.655v-28.738c-3.221-10.491-16.061-11.048-32-8.406v42.406c0 6.883 2.913 9.212 15 25.601v66.482h32v-71.744c0-6.883-2.913-9.212-15-25.601z" fill="#845f52"/><path d="m250.342 265.5c-8.836 0-16 7.164-16 16v56.069c0 8.836 7.164 16 16 16s16-7.164 16-16v-56.069c0-8.836-7.163-16-16-16z" fill="#8bc4ff"/><path d="m284.342 393.569c-8.837 0-16 7.164-16 16v21.5c0 8.836 7.163 16 16 16s16-7.164 16-16v-21.5c0-8.837-7.163-16-16-16z" fill="#8bc4ff"/><path d="m284.342 141.177c-8.837 0-16 7.164-16 16v21.5c0 8.836 7.163 16 16 16s16-7.164 16-16v-21.5c0-8.837-7.163-16-16-16z" fill="#8bc4ff"/></svg>